<svg xmlns="http://www.w3.org/2000/svg" style="margin-right:10px;"   version="1.1" shape-rendering="geometricPrecision" text-rendering="geometricPrecision" image-rendering="optimizeQuality" fill-rule="evenodd" clip-rule="evenodd" viewBox="0 0 18900 14000" xmlnsXlink="http://www.w3.org/1999/xlink" xmlnsXodm="http://www.corel.com/coreldraw/odm/2003">
                                                        <g id="Layer_x0020_1">
                                                        <metadata id="CorelCorpID_0Corel-Layer"></metadata>
                                                        <path fill="#545A6D" fill-rule="nonzero" d="M2800 10150c-420,0 -700,280 -700,700 0,420 280,700 700,700 420,0 700,-280 700,-700 0,-420 -280,-700 -700,-700zm2800 -10150c-2800,0 -5600,980 -5600,2800l0 8400c0,1820 2800,2800 5600,2800 2800,0 5600,-980 5600,-2800l0 -8400c0,-1890 -2800,-2800 -5600,-2800zm4200 11200c0,490 -1610,1400 -4200,1400 -2590,0 -4200,-910 -4200,-1400l0 -2310c1330,630 2730,910 4200,910 1470,70 2870,-280 4200,-910l0 2310zm0 -4200c0,490 -1610,1400 -4200,1400 -2590,0 -4200,-910 -4200,-1400l0 -2310c1330,630 2730,910 4200,910 1470,70 2870,-280 4200,-910l0 2310zm-4200 -2800c-2590,0 -4200,-910 -4200,-1400 0,-490 1610,-1400 4200,-1400 2590,0 4200,910 4200,1400 0,490 -1540,1400 -4200,1400zm-2800 1750c-420,0 -700,280 -700,700 0,420 280,700 700,700 420,0 700,-280 700,-700 0,-420 -280,-700 -700,-700z"></path>
                                                        <rect fill="#545A6D" fill-rule="nonzero" x="10290" y="6720" width="5950" height="1400"></rect>
                                                        <polygon fill="#545A6D" fill-rule="nonzero" points="16240,12810 13510,12810 13510,2100 16240,2100 16240,3500 14910,3500 14910,11410 16240,11410 "></polygon>
                                                        <path fill="#545A6D" fill-rule="nonzero" d="M16940 3990l1470 0c280,0 490,-210 490,-560l0 -1330c0,-280 -210,-560 -490,-560l-1470 0c-280,0 -490,280 -490,560l0 1330c0,350 210,560 490,560z"></path>
                                                        <path fill="#545A6D" fill-rule="nonzero" d="M16940 8680l1470 0c280,0 490,-210 490,-560l0 -1330c0,-280 -210,-560 -490,-560l-1470 0c-280,0 -490,210 -490,560l0 1330c0,280 210,560 490,560z"></path>
                                                        <path fill="#545A6D" fill-rule="nonzero" d="M16940 13300l1470 0c280,0 490,-210 490,-560l0 -1330c0,-280 -210,-560 -490,-560l-1470 0c-280,0 -490,210 -490,560l0 1330c0,350 210,560 490,560z"></path>
 </g>
</svg>