<svg xmlns="http://www.w3.org/2000/svg" style="margin-right:10px;" viewBox="0 0 17.674 22.976" style="width:15px;">
                                                            <g id="data-base" transform="translate(-6.75 -3.375)">
                                                                <path id="Path_306" data-name="Path 306" d="M22.656,3.375H8.517A1.767,1.767,0,0,0,6.75,5.142V24.584a1.767,1.767,0,0,0,1.767,1.767H22.656a1.767,1.767,0,0,0,1.767-1.767V5.142A1.767,1.767,0,0,0,22.656,3.375Zm0,1.767v5.3H8.517v-5.3ZM8.517,17.514v-5.3H22.656v5.3Zm0,7.07v-5.3H22.656v5.3Z" fill="#545a6d"></path>
                                                                <path id="Path_307" data-name="Path 307" d="M13.017,8.759a.884.884,0,1,1-.884-.884A.884.884,0,0,1,13.017,8.759Z" transform="translate(-0.965 -0.965)" fill="#545a6d"></path>
                                                                <path id="Path_308" data-name="Path 308" d="M13.017,17.759a.884.884,0,1,1-.884-.884A.884.884,0,0,1,13.017,17.759Z" transform="translate(-0.965 -2.896)" fill="#545a6d"></path>
                                                                <path id="Path_309" data-name="Path 309" d="M13.017,26.759a.884.884,0,1,1-.884-.884A.884.884,0,0,1,13.017,26.759Z" transform="translate(-0.965 -4.826)" fill="#545a6d"></path>
                                                            </g>
                                                        </svg>